<svg width="40" height="41" viewBox="0 0 40 41" fill="none" xmlns="http://www.w3.org/2000/svg">
<rect width="40" height="40.0771" rx="8" fill="#F9AA01"/>
<path d="M20.5028 13.1155C16.9557 13.1155 14.0945 15.9828 14.0945 19.5376C14.0945 23.0923 16.9557 25.9596 20.5028 25.9596C24.0499 25.9596 26.911 23.0923 26.911 19.5376C26.911 15.9828 24.0499 13.1155 20.5028 13.1155ZM20.5028 23.7127C18.2105 23.7127 16.3366 21.8403 16.3366 19.5376C16.3366 17.2348 18.205 15.3624 20.5028 15.3624C22.8006 15.3624 24.669 17.2348 24.669 19.5376C24.669 21.8403 22.795 23.7127 20.5028 23.7127ZM28.6679 12.8528C28.6679 13.6856 27.9986 14.3508 27.1732 14.3508C26.3422 14.3508 25.6785 13.6801 25.6785 12.8528C25.6785 12.0256 26.3477 11.3549 27.1732 11.3549C27.9986 11.3549 28.6679 12.0256 28.6679 12.8528ZM32.9122 14.3731C32.8173 12.3666 32.36 10.5892 30.8932 9.12482C29.432 7.66044 27.6584 7.20213 25.6562 7.10152C23.5926 6.98415 17.4074 6.98415 15.3438 7.10152C13.3472 7.19654 11.5736 7.65485 10.1068 9.11923C8.63999 10.5836 8.18823 12.361 8.08784 14.3675C7.97072 16.4355 7.97072 22.634 8.08784 24.702C8.18265 26.7086 8.63999 28.4859 10.1068 29.9503C11.5736 31.4147 13.3416 31.873 15.3438 31.9736C17.4074 32.091 23.5926 32.091 25.6562 31.9736C27.6584 31.8786 29.432 31.4203 30.8932 29.9503C32.3544 28.4859 32.8118 26.7086 32.9122 24.702C33.0293 22.634 33.0293 16.4411 32.9122 14.3731ZM30.2462 26.921C29.8112 28.0164 28.969 28.8604 27.8703 29.302C26.225 29.9559 22.321 29.805 20.5028 29.805C18.6846 29.805 14.775 29.9503 13.1352 29.302C12.0421 28.866 11.1999 28.022 10.7593 26.921C10.1068 25.2721 10.2574 21.3597 10.2574 19.5376C10.2574 17.7155 10.1124 13.7974 10.7593 12.1542C11.1944 11.0587 12.0365 10.2147 13.1352 9.77318C14.7805 9.11923 18.6846 9.27014 20.5028 9.27014C22.321 9.27014 26.2306 9.12482 27.8703 9.77318C28.9635 10.2091 29.8056 11.0531 30.2462 12.1542C30.8988 13.803 30.7482 17.7155 30.7482 19.5376C30.7482 21.3597 30.8988 25.2777 30.2462 26.921Z" fill="#1B1426"/>
</svg>
