<svg width="40" height="41" viewBox="0 0 40 41" fill="none" xmlns="http://www.w3.org/2000/svg">
<rect width="40" height="40.0771" rx="8" fill="#F9AA01"/>
<path d="M31.2143 7.01349H9.78013C8.79799 7.01349 8 7.8242 8 8.81942V30.2557C8 31.2509 8.79799 32.0617 9.78013 32.0617H31.2143C32.1964 32.0617 33 31.2509 33 30.2557V8.81942C33 7.8242 32.1964 7.01349 31.2143 7.01349ZM15.5558 28.4833H11.8504V16.5296H15.5614V28.4833H15.5558ZM13.7031 14.897C12.5145 14.897 11.5547 13.9297 11.5547 12.7444C11.5547 11.5591 12.5145 10.5918 13.7031 10.5918C14.8862 10.5918 15.8516 11.5591 15.8516 12.7444C15.8516 13.9353 14.8917 14.897 13.7031 14.897ZM29.4453 28.4833H25.74V22.6686C25.74 21.282 25.7121 19.4984 23.8147 19.4984C21.8839 19.4984 21.5882 21.008 21.5882 22.568V28.4833H17.8828V16.5296H21.4375V18.1622H21.4877C21.9844 17.2229 23.1953 16.2332 24.9978 16.2332C28.7478 16.2332 29.4453 18.7101 29.4453 21.9306V28.4833Z" fill="#1B1426"/>
</svg>
