<svg width="18" height="17" viewBox="0 0 25 25" fill="none" xmlns="http://www.w3.org/2000/svg">
<g clip-path="url(#clip0_2017_1331)">
<path d="M17.71 0.942383L15.3467 3.30566L21.6943 9.65332L24.0576 7.29004C25.2783 6.06934 25.2783 4.0918 24.0576 2.87109L22.1338 0.942383C20.9131 -0.27832 18.9355 -0.27832 17.7148 0.942383H17.71ZM14.2432 4.40918L2.86133 15.7959C2.35351 16.3037 1.98242 16.9336 1.77734 17.6221L0.0488254 23.4961C-0.0732449 23.9111 0.0390598 24.3555 0.341794 24.6582C0.644529 24.9609 1.08886 25.0732 1.49902 24.9561L7.37304 23.2275C8.06152 23.0225 8.6914 22.6514 9.19922 22.1436L20.5908 10.7568L14.2432 4.40918Z" fill="#F9AA01"/>
</g>
<defs>
<clipPath id="clip0_2017_1331">
<rect width="25" height="25" fill="white"/>
</clipPath>
</defs>
</svg>
